<svg xmlns="http://www.w3.org/2000/svg" xmlns:xlink="http://www.w3.org/1999/xlink" version="1.1" x="0px" y="0px" viewBox="0 0 100 125" enable-background="new 0 0 100 100" xml:space="preserve"><path d="M77.346,70.873l-4.242-4.243l4.242-4.243l4.242,4.243L77.346,70.873z M76.553,48.995c0.135,2.7,1.115,6.505,0.084,9.117  c1.037-1.568,2.076-3.137,3.115-4.705c-0.078,0.113-0.154,0.227-0.23,0.34c0.354-0.509,0.707-1.017,1.061-1.525  c-3.154,2.899-10.857,2.172-14.729,2.222c-7.09,0.093-14.3,0.017-21.38-0.377c-1.392,2.077-2.779,3.972-4.171,6.049  c3.981-4.507,7.618-9.345,13.561-11.282c4.852-1.581,10.289,2.157,7.908,7.389c1.365-2.042,2.73-4.083,4.094-6.124  c-4.131,5.469-12.936,3.554-18.839,3.861c-6.532,0.341-9.349-1.466-9.385-8.746c-1.392,2.077-2.784,4.153-4.176,6.23  c0.236,4.611,0.354,9.202-0.708,13.728c-0.25,1.062-0.406,2.031-0.84,3.026c1.829-4.193,1.915-2.914-0.213-1.312  c-2.263,1.704-5.293,2.359-8.063,2.38c-9.758,0.073-12.254-13.063-8.479-19.891c-1.202,2.175-2.969,4.047-4.176,6.23  c-6.3,11.391,4.428,24.967,16.542,17.51c3.432-2.113,5.652-6.756,7.74-10.058c3.22-5.094,2.667-12.113,2.373-17.844  c0.093,1.804-3.605,4.389-4.176,6.23c-2.809,9.063,4.819,8.83,11.521,8.662c6.826-0.172,13.574,0.884,17.847-5.409  c2.703-3.983,6.398-9.103,0.15-12.138c-7.092-3.445-14.76,7.263-18.511,11.508c-0.704,0.798-3.418,6.091-4.171,6.049  c6.158,0.342,12.327,0.331,18.489,0.53c5.396,0.174,11.223,0.116,16.432-1.475c2.232-0.681,3.848-4.604,5-6.361  c1.828-2.788,0.662-6.921,0.506-10.044C80.828,44.732,76.451,46.96,76.553,48.995L76.553,48.995z M83.822,34.696  c0.926,8.998,0.807,18.333,0.75,27.375c0.012-2.018,4.312-4.044,4.326-6.127c0.057-9.042,0.176-18.377-0.75-27.375  C88.338,30.405,83.625,32.786,83.822,34.696L83.822,34.696z"/><text x="0" y="115" fill="#000000" font-size="5px" font-weight="bold" font-family="'Helvetica Neue', Helvetica, Arial-Unicode, Arial, Sans-serif">Created by Ben Markoch</text><text x="0" y="120" fill="#000000" font-size="5px" font-weight="bold" font-family="'Helvetica Neue', Helvetica, Arial-Unicode, Arial, Sans-serif">from the Noun Project</text></svg>