<?xml version="1.0" encoding="UTF-8" standalone="no"?>
<svg
   xmlns:dc="http://purl.org/dc/elements/1.1/"
   xmlns:cc="http://creativecommons.org/ns#"
   xmlns:rdf="http://www.w3.org/1999/02/22-rdf-syntax-ns#"
   xmlns:svg="http://www.w3.org/2000/svg"
   xmlns="http://www.w3.org/2000/svg"
   xmlns:sodipodi="http://sodipodi.sourceforge.net/DTD/sodipodi-0.dtd"
   xmlns:inkscape="http://www.inkscape.org/namespaces/inkscape"
   version="1.1"
   x="0px"
   y="0px"
   viewBox="0 0 90.535004 74.845276"
   enable-background="new 0 0 96 99.818"
   xml:space="preserve"
   id="svg2"
   inkscape:version="0.91 r13725"
   sodipodi:docname="meeting.svg"
   width="90.535004"
   height="74.845276"><metadata
     id="metadata44"><rdf:RDF><cc:Work
         rdf:about=""><dc:format>image/svg+xml</dc:format><dc:type
           rdf:resource="http://purl.org/dc/dcmitype/StillImage" /><dc:title></dc:title></cc:Work></rdf:RDF></metadata><defs
     id="defs42" /><sodipodi:namedview
     pagecolor="#ffffff"
     bordercolor="#666666"
     borderopacity="1"
     objecttolerance="10"
     gridtolerance="10"
     guidetolerance="10"
     inkscape:pageopacity="0"
     inkscape:pageshadow="2"
     inkscape:window-width="826"
     inkscape:window-height="480"
     id="namedview40"
     showgrid="false"
     fit-margin-top="0"
     fit-margin-left="0"
     fit-margin-right="0"
     fit-margin-bottom="0"
     inkscape:zoom="1.8914424"
     inkscape:cx="39.874386"
     inkscape:cy="-38.497618"
     inkscape:window-x="0"
     inkscape:window-y="24"
     inkscape:window-maximized="0"
     inkscape:current-layer="svg2" /><g
     id="g4"
     transform="translate(-2.733,-12.487)"><path
       d="M 35.54,59.745 24.909,59.714 22.05,45.507 C 20.372,38.078 9.929,40.285 11.046,47.559 l 3.295,16.507 c 0.496,2.486 2.487,4.664 5.657,4.664 l 13.585,0 c 0,0 0,10.6 0,15.011 0,4.758 6.682,4.787 6.682,0.094 l 0,-19.303 C 40.264,62.199 38.65,59.745 35.54,59.745 Z"
       id="path6"
       inkscape:connector-curvature="0"
       style="fill:#000000" /><path
       d="m 15.203,39.725 c 3.449,0 6.278,-2.798 6.278,-6.246 0.029,-3.452 -2.767,-6.28 -6.248,-6.28 -3.449,-0.03 -6.278,2.767 -6.278,6.216 -0.033,3.482 2.765,6.28 6.248,6.31 z"
       id="path8"
       inkscape:connector-curvature="0"
       style="fill:#000000" /><path
       d="m 2.733,74.115 c 0,1.828 1.482,3.311 3.312,3.311 l 25.366,0 0,-6.62 -25.367,0 C 4.215,70.804 2.733,72.287 2.733,74.115 Z"
       id="path10"
       inkscape:connector-curvature="0"
       style="fill:#000000" /><path
       d="m 81.66,64.065 3.295,-16.507 c 1.117,-7.272 -9.324,-9.48 -11.004,-2.052 l -2.859,14.207 -10.629,0.031 c -3.111,0 -4.727,2.454 -4.727,4.787 l 0,19.302 c 0,4.693 6.682,4.664 6.682,-0.094 0,-4.411 0,-15.011 0,-15.011 l 13.586,0 c 3.17,0.001 5.16,-2.176 5.656,-4.663 z"
       id="path12"
       inkscape:connector-curvature="0"
       style="fill:#000000" /><path
       d="m 80.797,39.725 c 3.484,-0.03 6.281,-2.828 6.25,-6.312 0,-3.449 -2.828,-6.246 -6.277,-6.216 -3.481,0 -6.278,2.829 -6.25,6.28 0,3.45 2.83,6.248 6.277,6.248 z"
       id="path14"
       inkscape:connector-curvature="0"
       style="fill:#000000" /><path
       d="m 89.957,70.804 -25.365,0 0,6.62 25.365,0 c 1.828,0 3.311,-1.481 3.311,-3.311 0,-1.83 -1.483,-3.309 -3.311,-3.309 z"
       id="path16"
       inkscape:connector-curvature="0"
       style="fill:#000000" /><circle
       cx="47.949001"
       cy="18.58"
       r="6.0929999"
       id="circle18"
       style="fill:#000000" /><circle
       cx="41.922001"
       cy="35.513"
       r="0.97600001"
       id="circle20"
       style="fill:#000000" /><circle
       cx="47.044998"
       cy="35.513"
       r="0.97600001"
       id="circle22"
       style="fill:#000000" /><path
       d="m 39.303,47.606 0.825,0 0,0.051 0.046,0 0,-0.609 0,-9.784 0,-3.5 15.748,0 0,3.5 0,9.784 0,0.56 0.754,0 c 1.484,0 2.686,-1.202 2.686,-2.688 l 0,-15.36 c 0,-1.483 -1.2,-2.688 -2.686,-2.688 l -17.373,0 c -1.486,0 -2.689,1.204 -2.689,2.688 l 0,15.36 c 0,1.484 1.203,2.686 2.689,2.686 z"
       id="path24"
       inkscape:connector-curvature="0"
       style="fill:#000000" /><circle
       cx="44.484001"
       cy="35.513"
       r="0.97600001"
       id="circle26"
       style="fill:#000000" /><path
       d="m 30.913,56.679 34.071,0 c 1.828,0 3.312,-1.482 3.312,-3.312 0,-1.83 -1.481,-3.312 -3.312,-3.312 l -34.071,0 c -1.828,0 -3.311,1.482 -3.311,3.312 0,1.83 1.482,3.312 3.311,3.312 z"
       id="path28"
       inkscape:connector-curvature="0"
       style="fill:#000000" /><g
       id="g30"><g
         id="g32"><path
           d="m 41.922,36.489 c -0.537,0 -0.976,-0.438 -0.976,-0.976 0,-0.539 0.438,-0.977 0.976,-0.977 0.539,0 0.977,0.438 0.977,0.977 0,0.538 -0.438,0.976 -0.977,0.976 z m 2.562,0 c -0.539,0 -0.976,-0.438 -0.976,-0.976 0,-0.539 0.438,-0.977 0.976,-0.977 0.539,0 0.976,0.438 0.976,0.977 -10e-4,0.538 -0.437,0.976 -0.976,0.976 z m 2.561,0 c -0.539,0 -0.976,-0.438 -0.976,-0.976 0,-0.539 0.437,-0.977 0.976,-0.977 0.539,0 0.977,0.438 0.977,0.977 0,0.538 -0.438,0.976 -0.977,0.976 z"
           id="path34"
           inkscape:connector-curvature="0"
           style="fill:#000000" /></g></g></g></svg>