<?xml version="1.0" encoding="UTF-8" standalone="no"?>
<svg
   xmlns:dc="http://purl.org/dc/elements/1.1/"
   xmlns:cc="http://creativecommons.org/ns#"
   xmlns:rdf="http://www.w3.org/1999/02/22-rdf-syntax-ns#"
   xmlns:svg="http://www.w3.org/2000/svg"
   xmlns="http://www.w3.org/2000/svg"
   xmlns:sodipodi="http://sodipodi.sourceforge.net/DTD/sodipodi-0.dtd"
   xmlns:inkscape="http://www.inkscape.org/namespaces/inkscape"
   version="1.1"
   x="0px"
   y="0px"
   viewBox="0 0 100 98.501999"
   enable-background="new 0 0 100 100"
   xml:space="preserve"
   id="svg2"
   inkscape:version="0.91 r13725"
   sodipodi:docname="tandem.svg"
   width="100"
   height="98.501999"><metadata
     id="metadata24"><rdf:RDF><cc:Work
         rdf:about=""><dc:format>image/svg+xml</dc:format><dc:type
           rdf:resource="http://purl.org/dc/dcmitype/StillImage" /><dc:title></dc:title></cc:Work></rdf:RDF></metadata><defs
     id="defs22" /><sodipodi:namedview
     pagecolor="#ffffff"
     bordercolor="#666666"
     borderopacity="1"
     objecttolerance="10"
     gridtolerance="10"
     guidetolerance="10"
     inkscape:pageopacity="0"
     inkscape:pageshadow="2"
     inkscape:window-width="826"
     inkscape:window-height="480"
     id="namedview20"
     showgrid="false"
     fit-margin-top="0"
     fit-margin-left="0"
     fit-margin-right="0"
     fit-margin-bottom="0"
     inkscape:zoom="1.888"
     inkscape:cx="45.228697"
     inkscape:cy="37.5"
     inkscape:window-x="0"
     inkscape:window-y="24"
     inkscape:window-maximized="0"
     inkscape:current-layer="svg2" /><path
     d="m 24.948,45.103 c 0,6.329 -5.13,11.446 -11.433,11.446 -6.341,0 -11.457,-5.117 -11.457,-11.446 -0.002,-6.315 5.115,-11.445 11.457,-11.445 6.303,0 11.433,5.13 11.433,11.445 z"
     id="path4"
     inkscape:connector-curvature="0" /><path
     d="m 75.053,45.103 c 0,6.329 5.131,11.446 11.432,11.446 6.342,0 11.473,-5.117 11.473,-11.446 -0.001,-6.315 -5.132,-11.445 -11.473,-11.445 -6.301,0 -11.432,5.13 -11.432,11.445 z"
     id="path6"
     inkscape:connector-curvature="0" /><path
     d="M 43.672,84.44 C 43.412,82.004 44.35,79.752 45.938,78.112 36.25,76.262 32.28,71.537 28.83,67.264 27.149,65.168 25.549,63.176 23.426,61.77 23.361,61.731 23.283,61.731 23.232,61.678 21.421,60.18 19.129,59.231 16.605,59.231 l -6.186,0 C 4.688,59.231 0,63.906 0,69.635 l 0,28.867 27.018,0 0,-18.658 c 3.945,3.45 9.52,6.731 18.086,8.164 -0.715,-1.041 -1.276,-2.214 -1.432,-3.568 z"
     id="path8"
     inkscape:connector-curvature="0" /><path
     d="m 89.598,59.231 -6.199,0 c -2.512,0 -4.816,0.95 -6.613,2.448 -0.064,0.052 -0.145,0.052 -0.195,0.09 -2.123,1.406 -3.725,3.387 -5.417,5.496 -3.789,4.688 -8.086,10.039 -20.104,11.367 -2.721,0.312 -4.674,2.76 -4.375,5.481 0.273,2.539 2.423,4.414 4.922,4.414 0.183,0 0.365,-0.015 0.561,-0.026 10.182,-1.133 16.484,-4.753 20.82,-8.594 l 0,18.595 27.002,0 0,-28.867 C 100,63.906 95.312,59.231 89.598,59.231 Z"
     id="path10"
     inkscape:connector-curvature="0" /><path
     d="m 42.729,26.173 0,-11.451 c 0,-2.96 2.293,-5.361 5.122,-5.361 l 11.203,0 0,-2.73 C 59.054,2.969 56.216,0 52.718,0 L 23.336,0 C 19.838,0 17,2.969 17,6.631 L 17,20.8 c 0,3.662 2.838,6.633 6.336,6.633 l 4.848,0 c 0,2.608 0,5.219 0,7.829 0,0.432 0.594,0.737 0.901,0.375 2.312,-2.734 4.619,-5.468 6.931,-8.203 l 6.862,0 c -0.095,-0.406 -0.149,-0.826 -0.149,-1.261 z"
     id="path12"
     inkscape:connector-curvature="0" /><path
     d="m 45.637,16.61 0,12.783 c 0,2.67 2.068,4.835 4.62,4.835 l 12.176,0 c 1.685,1.993 3.368,3.986 5.052,5.98 0.226,0.266 0.657,0.043 0.657,-0.271 0,-1.903 0,-3.806 0,-5.708 l 7.625,0 c 2.551,0 4.619,-2.165 4.619,-4.835 l 0,-12.784 c 0,-2.669 -2.068,-4.835 -4.619,-4.835 l -25.51,0 c -2.552,-0.001 -4.62,2.165 -4.62,4.835 z"
     id="path14"
     inkscape:connector-curvature="0" /></svg>